<svg viewBox="0 0 1132 804" height="804" xmlns:ev="http://www.w3.org/2001/xml-events" xmlns:xlink="http://www.w3.org/1999/xlink" width="1132" xmlns="http://www.w3.org/2000/svg"><defs/><g id="page1" transform="translate(5.5,5.5)"><rect height="794" fill="none" y="0" width="1123" x="0"/><g id="chart1" transform="translate(241.000000,127.000000)"><g id="group2" transform="translate(0.000000,482.000000)"><g id="shape3" transform="translate(5.000000,5.000000)"><path stroke="#4155c6" fill="#4155c6" stroke-width="1" d="M15.0,7.0C15.0,10.9,11.9,14.0,8.0,14.0C4.1,14.0,1.0,10.9,1.0,7.0C1.0,3.1,4.1,.0,8.0,.0C11.9,.0,15.0,3.1,15.0,7.0z" fill-rule="nonzero"/><rect height="19.2" fill="#ffffff" y="-3.3" width="93.6" x="25.2"/><text style="fill:#000000;font-family:Arial;font-size:12.00pt" xml:space="preserve"><tspan y="12.7" x="25.2">5GB - R1210</tspan></text></g><g id="shape4" transform="translate(141.000000,5.000000)"><path stroke="#ff7e79" fill="#ff7e79" stroke-width="1" d="M15.0,7.0C15.0,10.9,11.9,14.0,8.0,14.0C4.1,14.0,1.0,10.9,1.0,7.0C1.0,3.1,4.1,.0,8.0,.0C11.9,.0,15.0,3.1,15.0,7.0z" fill-rule="nonzero"/><rect height="19.2" fill="#ffffff" y="-3.3" width="93.6" x="25.2"/><text style="fill:#000000;font-family:Arial;font-size:12.00pt" xml:space="preserve"><tspan y="12.7" x="25.2">10GB - R764</tspan></text></g><g id="shape5" transform="translate(277.000000,5.000000)"><path stroke="#ffcc53" fill="#ffcc53" stroke-width="1" d="M15.0,7.0C15.0,10.9,11.9,14.0,8.0,14.0C4.1,14.0,1.0,10.9,1.0,7.0C1.0,3.1,4.1,.0,8.0,.0C11.9,.0,15.0,3.1,15.0,7.0z" fill-rule="nonzero"/><rect height="19.2" fill="#ffffff" y="-3.3" width="93.6" x="25.2"/><text style="fill:#000000;font-family:Arial;font-size:12.00pt" xml:space="preserve"><tspan y="12.7" x="25.2">15GB - R329</tspan></text></g><g id="shape6" transform="translate(413.000000,5.000000)"><path stroke="#8dc0ff" fill="#8dc0ff" stroke-width="1" d="M15.0,7.0C15.0,10.9,11.9,14.0,8.0,14.0C4.1,14.0,1.0,10.9,1.0,7.0C1.0,3.1,4.1,.0,8.0,.0C11.9,.0,15.0,3.1,15.0,7.0z" fill-rule="nonzero"/><rect height="19.2" fill="#ffffff" y="-3.3" width="128.8" x="25.2"/><text style="fill:#000000;font-family:Arial;font-size:12.00pt" xml:space="preserve"><tspan y="12.7" x="25.2">Negotiated - R180</tspan></text></g><g id="shape7" transform="translate(5.000000,34.000000)"><path stroke="#7991ff" fill="#7991ff" stroke-width="1" d="M15.0,7.0C15.0,10.9,11.9,14.0,8.0,14.0C4.1,14.0,1.0,10.9,1.0,7.0C1.0,3.1,4.1,.0,8.0,.0C11.9,.0,15.0,3.1,15.0,7.0z" fill-rule="nonzero"/><rect height="19.2" fill="#ffffff" y="-3.3" width="129.6" x="25.2"/><text style="fill:#000000;font-family:Arial;font-size:12.00pt" xml:space="preserve"><tspan y="12.7" x="25.2">Chose other - R48</tspan></text></g><g id="shape8" transform="translate(176.000000,34.000000)"><path stroke="#fe9d17" fill="#fe9d17" stroke-width="1" d="M15.0,7.0C15.0,10.9,11.9,14.0,8.0,14.0C4.1,14.0,1.0,10.9,1.0,7.0C1.0,3.1,4.1,.0,8.0,.0C11.9,.0,15.0,3.1,15.0,7.0z" fill-rule="nonzero"/><rect height="19.2" fill="#ffffff" y="-3.3" width="112.8" x="25.2"/><text style="fill:#000000;font-family:Arial;font-size:12.00pt" xml:space="preserve"><tspan y="12.7" x="25.2">Upgraded - R43</tspan></text></g></g><g id="group9"><g id="shape10" transform="translate(120.500000,0.000000)"><path stroke="#4155c6" fill="#4155c6" stroke-width="1" d="M245.2,.0C376.4,2.3,482.0,109.3,482.0,241.0C482.0,360.1,395.5,459.1,281.9,478.5L265.5,383.5L265.5,383.5C333.7,371.8,385.6,312.5,385.6,241.0C385.6,162.0,322.2,97.8,243.5,96.4L245.2,.0z" fill-rule="nonzero"/><text style="fill:#ffffff;font-family:Arial;font-size:12.00pt" xml:space="preserve"><tspan y="232.0" x="416.6">1210</tspan></text></g><g id="shape11" transform="translate(120.500000,0.000000)"><path stroke="#ff7e79" fill="#ff7e79" stroke-width="1" d="M281.9,478.5C268.6,480.8,255.0,482.0,241.0,482.0C107.9,482.0,.0,374.1,.0,241.0C.0,230.9,.6,220.9,1.8,211.3L97.5,223.2L97.5,223.2C96.8,229.0,96.4,235.0,96.4,241.0C96.4,320.9,161.1,385.6,241.0,385.6C249.4,385.6,257.6,384.9,265.5,383.5L281.9,478.5z" fill-rule="nonzero"/><text style="fill:#ffffff;font-family:Arial;font-size:12.00pt" xml:space="preserve"><tspan y="386.2" x="95.7">764</tspan></text></g><g id="shape12" transform="translate(120.500000,0.000000)"><path stroke="#ffcc53" fill="#ffcc53" stroke-width="1" d="M1.8,211.3C10.0,144.7,45.3,86.6,96.3,48.3L154.2,125.4L154.2,125.4C123.6,148.4,102.4,183.2,97.5,223.2L1.8,211.3z" fill-rule="nonzero"/><text style="fill:#ffffff;font-family:Arial;font-size:12.00pt" xml:space="preserve"><tspan y="150.0" x="62.0">329</tspan></text></g><g id="shape13" transform="translate(120.500000,0.000000)"><path stroke="#8dc0ff" fill="#8dc0ff" stroke-width="1" d="M96.3,48.3C124.1,27.3,156.6,12.3,192.0,5.0L211.6,99.4L211.6,99.4C190.3,103.8,170.9,112.8,154.2,125.4L96.3,48.3z" fill-rule="nonzero"/><text style="fill:#ffffff;font-family:Arial;font-size:12.00pt" xml:space="preserve"><tspan y="71.0" x="149.4">180</tspan></text></g><g id="shape14" transform="translate(120.500000,0.000000)"><path stroke="#7991ff" fill="#7991ff" stroke-width="1" d="M192.0,5.0C201.1,3.1,210.4,1.7,219.9,.9L228.4,97.0L228.4,97.0C222.6,97.4,217.0,98.3,211.6,99.4L192.0,5.0z" fill-rule="nonzero"/><text style="fill:#ffffff;font-family:Arial;font-size:12.00pt" xml:space="preserve"><tspan y="56.0" x="205.1">48</tspan></text></g><g id="shape15" transform="translate(120.500000,0.000000)"><path stroke="#fe9d17" fill="#fe9d17" stroke-width="1" d="M219.9,.9C226.9,.3,233.9,.0,241.0,.0C242.4,.0,243.8,.0,245.2,.0L243.5,96.4L243.5,96.4C242.7,96.4,241.8,96.4,241.0,96.4C236.7,96.4,232.5,96.6,228.4,97.0L219.9,.9z" fill-rule="nonzero"/><text style="fill:#ffffff;font-family:Arial;font-size:12.00pt" xml:space="preserve"><tspan y="54.0" x="226.4">43</tspan></text></g></g></g></g></svg>