<svg viewBox="0 0 1132 804" height="804" xmlns:ev="http://www.w3.org/2001/xml-events" xmlns:xlink="http://www.w3.org/1999/xlink" width="1132" xmlns="http://www.w3.org/2000/svg"><defs/><g id="page1" transform="translate(5.5,5.5)"><rect height="794" fill="none" y="0" width="1123" x="0"/><g id="chart1" transform="translate(57.000000,66.000000)"><g id="group2" transform="translate(0.000000,647.000000)"><g id="shape3" transform="translate(147.998611,5.000000)"><path stroke="#e16e6a" fill="#e16e6a" stroke-width="1" d="M15.0,7.0C15.0,10.9,11.9,14.0,8.0,14.0C4.1,14.0,1.0,10.9,1.0,7.0C1.0,3.1,4.1,.0,8.0,.0C11.9,.0,15.0,3.1,15.0,7.0z" fill-rule="nonzero"/><rect height="12.8" fill="#ffffff" y="-0.8" width="60.0" x="25.2"/><text style="fill:#000000;font-family:Arial;font-size:8.00pt" xml:space="preserve"><tspan y="9.6" x="25.2">5GB - R1210</tspan></text></g><g id="shape4" transform="translate(253.998611,5.000000)"><path stroke="#ff7e79" fill="#ff7e79" stroke-width="1" d="M15.0,7.0C15.0,10.9,11.9,14.0,8.0,14.0C4.1,14.0,1.0,10.9,1.0,7.0C1.0,3.1,4.1,.0,8.0,.0C11.9,.0,15.0,3.1,15.0,7.0z" fill-rule="nonzero"/><rect height="12.8" fill="#ffffff" y="-0.8" width="60.0" x="25.2"/><text style="fill:#000000;font-family:Arial;font-size:8.00pt" xml:space="preserve"><tspan y="9.6" x="25.2">10GB - R764</tspan></text></g><g id="shape5" transform="translate(359.998611,5.000000)"><path stroke="#ffa3a0" fill="#ffa3a0" stroke-width="1" d="M15.0,7.0C15.0,10.9,11.9,14.0,8.0,14.0C4.1,14.0,1.0,10.9,1.0,7.0C1.0,3.1,4.1,.0,8.0,.0C11.9,.0,15.0,3.1,15.0,7.0z" fill-rule="nonzero"/><rect height="12.8" fill="#ffffff" y="-0.8" width="60.0" x="25.2"/><text style="fill:#000000;font-family:Arial;font-size:8.00pt" xml:space="preserve"><tspan y="9.6" x="25.2">15GB - R329</tspan></text></g><g id="shape6" transform="translate(465.998611,5.000000)"><path stroke="#ffc0be" fill="#ffc0be" stroke-width="1" d="M15.0,7.0C15.0,10.9,11.9,14.0,8.0,14.0C4.1,14.0,1.0,10.9,1.0,7.0C1.0,3.1,4.1,.0,8.0,.0C11.9,.0,15.0,3.1,15.0,7.0z" fill-rule="nonzero"/><rect height="12.8" fill="#ffffff" y="-0.8" width="83.2" x="25.2"/><text style="fill:#000000;font-family:Arial;font-size:8.00pt" xml:space="preserve"><tspan y="9.6" x="25.2">Negotiated - R180</tspan></text></g><g id="shape7" transform="translate(595.998611,5.000000)"><path stroke="#ffd8d7" fill="#ffd8d7" stroke-width="1" d="M15.0,7.0C15.0,10.9,11.9,14.0,8.0,14.0C4.1,14.0,1.0,10.9,1.0,7.0C1.0,3.1,4.1,.0,8.0,.0C11.9,.0,15.0,3.1,15.0,7.0z" fill-rule="nonzero"/><rect height="12.8" fill="#ffffff" y="-0.8" width="84.0" x="25.2"/><text style="fill:#000000;font-family:Arial;font-size:8.00pt" xml:space="preserve"><tspan y="9.6" x="25.2">Chose other - R48</tspan></text></g><g id="shape8" transform="translate(727.998611,5.000000)"><path stroke="#fe9d17" fill="#fe9d17" stroke-width="1" d="M15.0,7.0C15.0,10.9,11.9,14.0,8.0,14.0C4.1,14.0,1.0,10.9,1.0,7.0C1.0,3.1,4.1,.0,8.0,.0C11.9,.0,15.0,3.1,15.0,7.0z" fill-rule="nonzero"/><rect height="12.8" fill="#ffffff" y="-0.8" width="72.0" x="25.2"/><text style="fill:#000000;font-family:Arial;font-size:8.00pt" xml:space="preserve"><tspan y="9.6" x="25.2">Upgraded - R43</tspan></text></g></g><g id="group9"><g id="shape10" transform="translate(169.498611,0.000000)"><path stroke="#e16e6a" fill="#e16e6a" stroke-width="1" d="M329.1,.0C505.2,3.1,647.0,146.7,647.0,323.5C647.0,483.4,530.9,616.3,378.4,642.3L356.4,514.8L356.4,514.8C448.0,499.1,517.6,419.4,517.6,323.5C517.6,217.4,432.5,131.2,326.9,129.4L329.1,.0z" fill-rule="nonzero"/><text style="fill:#ffffff;font-family:Arial;font-size:8.00pt" xml:space="preserve"><tspan y="306.3" x="572.1">47%</tspan></text></g><g id="shape11" transform="translate(169.498611,0.000000)"><path stroke="#ff7e79" fill="#ff7e79" stroke-width="1" d="M378.4,642.3C360.6,645.4,342.2,647.0,323.5,647.0C144.8,647.0,.0,502.2,.0,323.5C.0,309.9,.8,296.6,2.5,283.6L130.9,299.6L130.9,299.6C129.9,307.4,129.4,315.4,129.4,323.5C129.4,430.7,216.3,517.6,323.5,517.6C334.8,517.6,345.8,516.6,356.4,514.8L378.4,642.3z" fill-rule="nonzero"/><text style="fill:#ffffff;font-family:Arial;font-size:8.00pt" xml:space="preserve"><tspan y="513.3" x="135.4">30%</tspan></text></g><g id="shape12" transform="translate(169.498611,0.000000)"><path stroke="#ffa3a0" fill="#ffa3a0" stroke-width="1" d="M2.5,283.6C13.5,194.2,60.8,116.3,129.3,64.8L207.0,168.3L207.0,168.3C165.9,199.2,137.5,246.0,130.9,299.6L2.5,283.6z" fill-rule="nonzero"/><text style="fill:#ffffff;font-family:Arial;font-size:8.00pt" xml:space="preserve"><tspan y="196.3" x="90.2">13%</tspan></text></g><g id="shape13" transform="translate(169.498611,0.000000)"><path stroke="#ffc0be" fill="#ffc0be" stroke-width="1" d="M129.3,64.8C166.6,36.7,210.2,16.5,257.7,6.8L284.0,133.5L284.0,133.5C255.5,139.3,229.3,151.4,207.0,168.3L129.3,64.8z" fill-rule="nonzero"/><text style="fill:#ffffff;font-family:Arial;font-size:8.00pt" xml:space="preserve"><tspan y="90.3" x="210.3">7%</tspan></text></g><g id="shape14" transform="translate(169.498611,0.000000)"><path stroke="#ffd8d7" fill="#ffd8d7" stroke-width="1" d="M257.7,6.8C270.0,4.2,282.5,2.3,295.2,1.2L306.5,130.1L306.5,130.1C298.8,130.8,291.3,131.9,284.0,133.5L257.7,6.8z" fill-rule="nonzero"/><text style="fill:#ffffff;font-family:Arial;font-size:8.00pt" xml:space="preserve"><tspan y="70.1" x="279.2">2%</tspan></text></g><g id="shape15" transform="translate(169.498611,0.000000)"><path stroke="#fe9d17" fill="#fe9d17" stroke-width="1" d="M295.2,1.2C304.5,.4,314.0,.0,323.5,.0C325.4,.0,327.3,.0,329.1,.0L326.9,129.4L326.9,129.4C325.8,129.4,324.6,129.4,323.5,129.4C317.8,129.4,312.1,129.6,306.5,130.1L295.2,1.2z" fill-rule="nonzero"/><text style="fill:#ffffff;font-family:Arial;font-size:8.00pt" xml:space="preserve"><tspan y="67.5" x="307.8">2%</tspan></text></g></g></g></g></svg>