<svg viewBox="0 0 1132 804" height="804" xmlns:ev="http://www.w3.org/2001/xml-events" xmlns:xlink="http://www.w3.org/1999/xlink" width="1132" xmlns="http://www.w3.org/2000/svg"><defs/><g id="page1" transform="translate(5.5,5.5)"><rect height="794" fill="none" y="0" width="1123" x="0"/><path fill="#ffffff" id="shape1" d="M.0,.0L1122.5,.0L1122.5,793.7L.0,793.7L.0,.0z" fill-rule="nonzero"/><g id="chart2" transform="translate(91.793000,144.197000)"><g id="group3" transform="translate(0.000000,482.306000)"><g id="shape4" transform="translate(425.467500,6.000000)"><path fill="#ffffff" d="M20.5,7.0C20.5,10.9,17.4,14.0,13.5,14.0C9.6,14.0,6.5,10.9,6.5,7.0C6.5,3.1,9.6,.0,13.5,.0C17.4,.0,20.5,3.1,20.5,7.0z" fill-rule="nonzero"/><path stroke="#4ed7c5" fill="none" stroke-width="1" d="M20.5,7.0C20.5,10.9,17.4,14.0,13.5,14.0C9.6,14.0,6.5,10.9,6.5,7.0C6.5,3.1,9.6,.0,13.5,.0C17.4,.0,20.5,3.1,20.5,7.0zM.0,7.0L7.0,7.0M28.0,7.0L21.0,7.0"/></g></g><g id="group5"><g id="shape6" transform="translate(61.500000,448.306000)"><path stroke="#000000" fill="none" stroke-width="1" d="M.0,5.0L784.4,5.0M.0,5.0L.0,10.0M112.1,5.0L112.1,10.0M224.1,5.0L224.1,10.0M336.2,5.0L336.2,10.0M448.2,5.0L448.2,10.0M560.3,5.0L560.3,10.0M672.4,5.0L672.4,10.0"/><text style="fill:#000000;font-family:Verdana;font-size:10.00pt" xml:space="preserve"><tspan y="9.8" x="794.5">Week</tspan></text><text style="fill:#000000;font-family:Verdana;font-size:10.00pt" xml:space="preserve"><tspan y="26.8" x="30.6">Monday</tspan></text><text style="fill:#000000;font-family:Verdana;font-size:10.00pt" xml:space="preserve"><tspan y="26.8" x="141.5">Tuesday</tspan></text><text style="fill:#000000;font-family:Verdana;font-size:10.00pt" xml:space="preserve"><tspan y="26.8" x="242.0">Wednesday</tspan></text><text style="fill:#000000;font-family:Verdana;font-size:10.00pt" xml:space="preserve"><tspan y="26.8" x="361.6">Thursday</tspan></text><text style="fill:#000000;font-family:Verdana;font-size:10.00pt" xml:space="preserve"><tspan y="26.8" x="484.1">Friday</tspan></text><text style="fill:#000000;font-family:Verdana;font-size:10.00pt" xml:space="preserve"><tspan y="26.8" x="586.1">Saturday</tspan></text><text style="fill:#000000;font-family:Verdana;font-size:10.00pt" xml:space="preserve"><tspan y="26.8" x="703.4">Sunday</tspan></text></g><g id="shape8" transform="translate(56.500000,36.000000)"><path stroke="#000000" fill="none" stroke-width="1" d="M5.0,417.3L5.0,.0M5.0,417.3L.0,417.3M5.0,333.8L.0,333.8M5.0,250.4L.0,250.4M5.0,166.9L.0,166.9M5.0,83.5L.0,83.5M5.0,-0.0L.0,-0.0"/><text style="fill:#000000;font-family:Verdana;font-size:10.00pt" xml:space="preserve"><tspan y="-12.2" x="-35.0">Amount in </tspan><tspan y="3.8" x="-16.6">Rand</tspan></text><text style="fill:#000000;font-family:Verdana;font-size:10.00pt" xml:space="preserve"><tspan y="422.1" x="-17.4">0</tspan></text><text style="fill:#000000;font-family:Verdana;font-size:10.00pt" xml:space="preserve"><tspan y="338.6" x="-34.2">200</tspan></text><text style="fill:#000000;font-family:Verdana;font-size:10.00pt" xml:space="preserve"><tspan y="255.2" x="-34.2">400</tspan></text><text style="fill:#000000;font-family:Verdana;font-size:10.00pt" xml:space="preserve"><tspan y="171.7" x="-34.2">600</tspan></text><text style="fill:#000000;font-family:Verdana;font-size:10.00pt" xml:space="preserve"><tspan y="88.3" x="-34.2">800</tspan></text><text style="fill:#000000;font-family:Verdana;font-size:10.00pt" xml:space="preserve"><tspan y="4.8" x="-47.5">1 000</tspan></text><path stroke="#dcdcdc" fill="none" stroke-width="1" id="shape9" d="M5.0,333.8L789.4,333.8M5.0,250.4L789.4,250.4M5.0,166.9L789.4,166.9M5.0,83.5L789.4,83.5M5.0,-0.0L789.4,-0.0"/></g></g><g id="group10" transform="translate(61.500000,36.000000)"><g id="group11"><path stroke="#4ed7c5" fill="none" stroke-width="2" id="shape12" d="M56.0,208.7C112.1,208.7,112.1,166.9,168.1,166.9C224.1,166.9,224.1,200.3,280.2,200.3C336.2,200.3,336.2,233.7,392.2,233.7C448.2,233.7,448.2,175.3,504.3,175.3C560.3,175.3,560.3,158.6,616.3,158.6C672.4,158.6,672.4,83.5,728.4,83.5"/><g id="shape13"><path stroke="#4ed7c5" fill="#ffffff" stroke-width="1" d="M51.0,208.7C51.0,205.9,53.3,203.7,56.0,203.7C58.8,203.7,61.0,205.9,61.0,208.7C61.0,211.4,58.8,213.7,56.0,213.7C53.3,213.7,51.0,211.4,51.0,208.7z" fill-rule="nonzero"/><text style="fill:#4ed7c5;font-family:Verdana;font-size:10.00pt" xml:space="preserve"><tspan y="198.5" x="43.8">500</tspan></text></g><g id="shape14"><path stroke="#4ed7c5" fill="#ffffff" stroke-width="1" d="M163.1,166.9C163.1,164.2,165.3,161.9,168.1,161.9C170.9,161.9,173.1,164.2,173.1,166.9C173.1,169.7,170.9,171.9,168.1,171.9C165.3,171.9,163.1,169.7,163.1,166.9z" fill-rule="nonzero"/><text style="fill:#4ed7c5;font-family:Verdana;font-size:10.00pt" xml:space="preserve"><tspan y="156.7" x="155.9">600</tspan></text></g><g id="shape15"><path stroke="#4ed7c5" fill="#ffffff" stroke-width="1" d="M275.2,200.3C275.2,197.5,277.4,195.3,280.2,195.3C282.9,195.3,285.2,197.5,285.2,200.3C285.2,203.1,282.9,205.3,280.2,205.3C277.4,205.3,275.2,203.1,275.2,200.3z" fill-rule="nonzero"/><text style="fill:#4ed7c5;font-family:Verdana;font-size:10.00pt" xml:space="preserve"><tspan y="190.1" x="268.0">520</tspan></text></g><g id="shape16"><path stroke="#4ed7c5" fill="#ffffff" stroke-width="1" d="M387.2,233.7C387.2,230.9,389.5,228.7,392.2,228.7C395.0,228.7,397.2,230.9,397.2,233.7C397.2,236.5,395.0,238.7,392.2,238.7C389.5,238.7,387.2,236.5,387.2,233.7z" fill-rule="nonzero"/><text style="fill:#4ed7c5;font-family:Verdana;font-size:10.00pt" xml:space="preserve"><tspan y="223.5" x="380.0">440</tspan></text></g><g id="shape17"><path stroke="#4ed7c5" fill="#ffffff" stroke-width="1" d="M499.3,175.3C499.3,172.5,501.5,170.3,504.3,170.3C507.0,170.3,509.3,172.5,509.3,175.3C509.3,178.0,507.0,180.3,504.3,180.3C501.5,180.3,499.3,178.0,499.3,175.3z" fill-rule="nonzero"/><text style="fill:#4ed7c5;font-family:Verdana;font-size:10.00pt" xml:space="preserve"><tspan y="165.1" x="492.1">580</tspan></text></g><g id="shape18"><path stroke="#4ed7c5" fill="#ffffff" stroke-width="1" d="M611.3,158.6C611.3,155.8,613.6,153.6,616.3,153.6C619.1,153.6,621.3,155.8,621.3,158.6C621.3,161.3,619.1,163.6,616.3,163.6C613.6,163.6,611.3,161.3,611.3,158.6z" fill-rule="nonzero"/><text style="fill:#4ed7c5;font-family:Verdana;font-size:10.00pt" xml:space="preserve"><tspan y="148.4" x="604.1">620</tspan></text></g><g id="shape19"><path stroke="#4ed7c5" fill="#ffffff" stroke-width="1" d="M723.4,83.5C723.4,80.7,725.6,78.5,728.4,78.5C731.2,78.5,733.4,80.7,733.4,83.5C733.4,86.2,731.2,88.5,728.4,88.5C725.6,88.5,723.4,86.2,723.4,83.5z" fill-rule="nonzero"/><text style="fill:#4ed7c5;font-family:Verdana;font-size:10.00pt" xml:space="preserve"><tspan y="73.3" x="716.2">800</tspan></text></g></g></g></g></g></svg>