<svg viewBox="0 0 1132 804" height="804" xmlns:ev="http://www.w3.org/2001/xml-events" xmlns:xlink="http://www.w3.org/1999/xlink" width="1132" xmlns="http://www.w3.org/2000/svg"><defs/><g id="page1" transform="translate(5.5,5.5)"><rect height="794" fill="none" y="0" width="1123" x="0"/><g id="chart1" transform="translate(217.451389,111.402174)"><g id="group2" transform="translate(0.000000,563.597826)"><g id="shape3" transform="translate(98.548611,14.500000)"><path stroke="#868686" fill="#868686" stroke-width="1" d="M15.0,7.0C15.0,10.9,11.9,14.0,8.0,14.0C4.1,14.0,1.0,10.9,1.0,7.0C1.0,3.1,4.1,.0,8.0,.0C11.9,.0,15.0,3.1,15.0,7.0z" fill-rule="nonzero"/><rect height="31.2" fill="#ffffff" y="-10.3" width="251.2" x="25.2"/><text style="fill:#000000;font-family:Arial;font-size:20.00pt" xml:space="preserve"><tspan y="15.3" x="25.2">Unused Server Space</tspan></text></g><g id="shape4" transform="translate(407.548611,14.500000)"><path stroke="#3d6de0" fill="#3d6de0" stroke-width="1" d="M15.0,7.0C15.0,10.9,11.9,14.0,8.0,14.0C4.1,14.0,1.0,10.9,1.0,7.0C1.0,3.1,4.1,.0,8.0,.0C11.9,.0,15.0,3.1,15.0,7.0z" fill-rule="nonzero"/><rect height="31.2" fill="#ffffff" y="-10.3" width="222.4" x="25.2"/><text style="fill:#000000;font-family:Arial;font-size:20.00pt" xml:space="preserve"><tspan y="15.3" x="25.2">Used Server Space</tspan></text></g></g><g id="group5"><g id="shape6" transform="translate(105.749698,0.000000)"><path stroke="#868686" fill="#868686" stroke-width="1" d="M286.7,.0C440.1,2.7,563.6,127.8,563.6,281.8C563.6,408.2,480.4,515.1,365.7,550.8L327.9,429.8L327.9,429.8C391.0,410.1,436.8,351.3,436.8,281.8C436.8,197.1,368.9,128.3,284.5,126.8L286.7,.0z" fill-rule="nonzero"/><text style="fill:#ffffff;font-family:Arial;font-size:20.00pt" xml:space="preserve"><tspan y="259.1" x="466.6">26.92</tspan></text></g><g id="shape7" transform="translate(105.749698,0.000000)"><path stroke="#3d6de0" fill="#3d6de0" stroke-width="1" d="M365.7,550.8C339.3,559.1,311.0,563.6,281.8,563.6C126.2,563.6,.0,437.4,.0,281.8C.0,126.2,126.2,.0,281.8,.0C283.5,.0,285.1,.0,286.7,.0L284.5,126.8L284.5,126.8C283.6,126.8,282.7,126.8,281.8,126.8C196.2,126.8,126.8,196.2,126.8,281.8C126.8,367.4,196.2,436.8,281.8,436.8C297.9,436.8,313.4,434.3,327.9,429.8L365.7,550.8z" fill-rule="nonzero"/><text style="fill:#ffffff;font-family:Arial;font-size:20.00pt" xml:space="preserve"><tspan y="321.1" x="34.2">33.02</tspan></text></g></g></g></g></svg>